{
  "accessors": [
    {
      "bufferView": 2,
      "componentType": 5126,
      "count": 65532,
      "max": [
        1.4861379861831665,
        9.5867090225219727,
        0.8474239706993103
      ],
      "min": [
        -0.25807899236679077,
        8.4311141967773438,
        -0.66643601655960083
      ],
      "type": "VEC3"
    },
    {
      "bufferView": 2,
      "byteOffset": 786384,
      "componentType": 5126,
      "count": 65532,
      "max": [
        0.99520015716552734,
        0.99998933076858521,
        0.99998694658279419
      ],
      "min": [
        -0.73468506336212158,
        -0.99999028444290161,
        -0.99998205900192261
      ],
      "type": "VEC3"
    },
    {
      "bufferView": 1,
      "componentType": 5126,
      "count": 65532,
      "max": [
        0.99435502290725708,
        0.89573901891708374
      ],
      "min": [
        0,
        9.2000002041459084e-05
      ],
      "type": "VEC2"
    },
    {
      "bufferView": 0,
      "componentType": 5125,
      "count": 370290,
      "max": [
        65531
      ],
      "min": [
        0
      ],
      "type": "SCALAR"
    },
    {
      "bufferView": 2,
      "byteOffset": 1572768,
      "componentType": 5126,
      "count": 65532,
      "max": [
        0.70150697231292725,
        9.6002111434936523,
        0.84690999984741211
      ],
      "min": [
        -1.212488055229187,
        8.4315662384033203,
        -0.66633099317550659
      ],
      "type": "VEC3"
    },
    {
      "bufferView": 2,
      "byteOffset": 2359152,
      "componentType": 5126,
      "count": 65532,
      "max": [
        0.79965853691101074,
        0.99999576807022095,
        0.99996727705001831
      ],
      "min": [
        -0.99803680181503296,
        -0.99988460540771484,
        -0.99999558925628662
      ],
      "type": "VEC3"
    },
    {
      "bufferView": 1,
      "byteOffset": 524256,
      "componentType": 5126,
      "count": 65532,
      "max": [
        0.99574500322341919,
        1
      ],
      "min": [
        0,
        0.0013119999784976244
      ],
      "type": "VEC2"
    },
    {
      "bufferView": 0,
      "byteOffset": 1481160,
      "componentType": 5125,
      "count": 338490,
      "max": [
        65531
      ],
      "min": [
        0
      ],
      "type": "SCALAR"
    },
    {
      "bufferView": 2,
      "byteOffset": 3145536,
      "componentType": 5126,
      "count": 18189,
      "max": [
        -0.255607008934021,
        9.5936832427978516,
        0.70842099189758301
      ],
      "min": [
        -1.212488055229187,
        8.5166463851928711,
        -0.60927200317382812
      ],
      "type": "VEC3"
    },
    {
      "bufferView": 2,
      "byteOffset": 3363804,
      "componentType": 5126,
      "count": 18189,
      "max": [
        0.77697277069091797,
        0.99999576807022095,
        0.99985051155090332
      ],
      "min": [
        -0.99992191791534424,
        -0.99809706211090088,
        -0.99999558925628662
      ],
      "type": "VEC3"
    },
    {
      "bufferView": 1,
      "byteOffset": 1048512,
      "componentType": 5126,
      "count": 18189,
      "max": [
        0.99467200040817261,
        1
      ],
      "min": [
        0.056063000112771988,
        0.24458199739456177
      ],
      "type": "VEC2"
    },
    {
      "bufferView": 0,
      "byteOffset": 2835120,
      "componentType": 5125,
      "count": 76620,
      "max": [
        18188
      ],
      "min": [
        0
      ],
      "type": "SCALAR"
    }
  ],
  "asset": {
    "extras": {
      "author": "Digital Atlas of Ancient Life (https://sketchfab.com/DigitalAtlasOfAncientLife)",
      "license": "CC0-1.0 (http://creativecommons.org/publicdomain/zero/1.0/)",
      "source": "https://sketchfab.com/3d-models/angiosperm-fossil-leaf-cornell-univ-924d4f9f35c742c78277860a02287fea",
      "title": "Angiosperm: Fossil leaf (Cornell Univ.)"
    },
    "generator": "Sketchfab-7.80.0",
    "version": "2.0"
  },
  "bufferViews": [
    {
      "buffer": 0,
      "byteLength": 3141600,
      "byteOffset": 0,
      "name": "floatBufferViews",
      "target": 34963
    },
    {
      "buffer": 0,
      "byteLength": 1194024,
      "byteOffset": 3141600,
      "byteStride": 8,
      "name": "floatBufferViews",
      "target": 34962
    },
    {
      "buffer": 0,
      "byteLength": 3582072,
      "byteOffset": 4335624,
      "byteStride": 12,
      "name": "floatBufferViews",
      "target": 34962
    }
  ],
  "buffers": [
    {
      "byteLength": 7917696,
      "uri": "scene.bin"
    }
  ],
  "extensionsUsed": [
    "KHR_materials_unlit"
  ],
  "images": [
    {
      "uri": "textures/AngiospermLeaf_baseColor.jpeg"
    }
  ],
  "materials": [
    {
      "doubleSided": true,
      "emissiveFactor": [
        0,
        0,
        0
      ],
      "extensions": {
        "KHR_materials_unlit": {}
      },
      "name": "AngiospermLeaf",
      "pbrMetallicRoughness": {
        "baseColorFactor": [
          1,
          1,
          1,
          1
        ],
        "baseColorTexture": {
          "index": 0,
          "texCoord": 0
        },
        "metallicFactor": 0,
        "roughnessFactor": 1
      }
    }
  ],
  "meshes": [
    {
      "primitives": [
        {
          "attributes": {
            "NORMAL": 1,
            "POSITION": 0,
            "TEXCOORD_0": 2
          },
          "indices": 3,
          "material": 0,
          "mode": 4
        }
      ]
    },
    {
      "primitives": [
        {
          "attributes": {
            "NORMAL": 5,
            "POSITION": 4,
            "TEXCOORD_0": 6
          },
          "indices": 7,
          "material": 0,
          "mode": 4
        }
      ]
    },
    {
      "primitives": [
        {
          "attributes": {
            "NORMAL": 9,
            "POSITION": 8,
            "TEXCOORD_0": 10
          },
          "indices": 11,
          "material": 0,
          "mode": 4
        }
      ]
    }
  ],
  "nodes": [
    {
      "children": [
        1
      ],
      "name": "RootNode (gltf orientation matrix)",
      "rotation": [
        -0.70710678118654746,
        -0,
        -0,
        0.70710678118654757
      ]
    },
    {
      "children": [
        2
      ],
      "matrix": [
        -0.99591416120529175,
        0.019406190142035484,
        0.088195078074932098,
        0,
        -0.062626175582408905,
        -0.85204827785491943,
        -0.5197034478187561,
        0,
        0.065060995519161224,
        -0.52310335636138916,
        0.84978228807449341,
        0,
        0.83181411027908325,
        16.742118835449219,
        4.6869959831237793,
        1
      ],
      "name": "RootNode (model correction matrix)"
    },
    {
      "children": [
        3,
        4,
        5
      ],
      "name": "AngiospermLeaf.obj.cleaner.materialmerger.gles"
    },
    {
      "mesh": 0,
      "name": ""
    },
    {
      "mesh": 1,
      "name": ""
    },
    {
      "mesh": 2,
      "name": ""
    }
  ],
  "samplers": [
    {
      "magFilter": 9729,
      "minFilter": 9987,
      "wrapS": 10497,
      "wrapT": 10497
    }
  ],
  "scene": 0,
  "scenes": [
    {
      "name": "OSG_Scene",
      "nodes": [
        0
      ]
    }
  ],
  "textures": [
    {
      "sampler": 0,
      "source": 0
    }
  ]
}

